<svg width="311" height="220" viewBox="0 0 311 220" fill="none" xmlns="http://www.w3.org/2000/svg">
<rect x="311" width="219.529" height="311" rx="45.7353" transform="rotate(90 311 0)" fill="#45197D"/>
<mask id="mask0_309_130" style="mask-type:alpha" maskUnits="userSpaceOnUse" x="0" y="0" width="311" height="220">
<rect x="311" width="219.529" height="311" rx="45.7353" transform="rotate(90 311 0)" fill="#5B259F"/>
</mask>
<g mask="url(#mask0_309_130)">
<circle cx="27.4412" cy="176.538" r="75.9206" transform="rotate(90 27.4412 176.538)" stroke="#D71CDB" stroke-width="3.65882"/>
<circle cx="275.978" cy="45.4721" r="61.022" transform="rotate(90 275.978 45.4721)" fill="#6E34B8"/>
<circle cx="296.822" cy="198.034" r="35.2162" transform="rotate(90 296.822 198.034)" stroke="#9038FF" stroke-width="3.65882"/>
</g>
<path d="M68.3679 156.826C66.9806 156.321 65.5142 156.067 64.0377 156.077C59.2628 156.077 55.8905 158.483 55.8666 161.936C55.8368 164.472 58.263 165.902 60.0984 166.749C61.9815 167.621 62.6112 168.17 62.6052 168.949C62.5933 170.133 61.1011 170.671 59.7134 170.671C57.8064 170.671 56.7649 170.405 55.1623 169.739L54.5684 169.462L53.891 173.437C55.0519 173.921 57.1439 174.335 59.3045 174.371C64.3809 174.371 67.6994 171.981 67.7382 168.307C67.78 166.281 66.4669 164.75 63.7034 163.484C62.0232 162.664 60.9817 162.115 60.9817 161.282C60.9817 160.545 61.874 159.757 63.7392 159.757C64.9806 159.727 66.2142 159.96 67.3592 160.44L67.8068 160.64L68.4843 156.8L68.3679 156.826ZM80.7588 156.4H77.0284C75.8675 156.4 74.9931 156.719 74.4857 157.871L67.3114 174.123H72.3878L73.4024 171.458L79.5979 171.464C79.7441 172.088 80.1917 174.123 80.1917 174.123H84.6682L80.7588 156.4ZM48.9997 156.25H53.8373L50.8112 173.983H45.9796L48.9997 156.244V156.25ZM36.7193 166.024L37.2206 168.486L41.9478 156.4H47.0718L39.4589 174.1H34.3467L30.1687 159.112C30.101 158.865 29.9421 158.653 29.724 158.518C28.2182 157.741 26.6226 157.15 24.973 156.761L25.0387 156.388H32.8247C33.8812 156.429 34.7317 156.761 35.0152 157.889L36.7163 166.033V166.024H36.7193ZM74.7901 167.833L76.718 162.873C76.6941 162.926 77.1149 161.849 77.3596 161.183L77.6909 162.714L78.81 167.83H74.7872V167.833H74.7901Z" fill="white"/>
<rect x="267.588" y="51" width="32.0147" height="36.5882" rx="5.48824" transform="rotate(90 267.588 51)" fill="#FFD686"/>
<path d="M267.588 69.66H251.855V61.6106L231 61.6106" stroke="#45197D" stroke-width="1.82941" stroke-linejoin="round"/>
</svg>
