<svg width="296" height="212" viewBox="0 0 296 212" fill="none" xmlns="http://www.w3.org/2000/svg">
<path d="M9.347 204.45C9.347 205.325 9.15633 206.118 8.775 206.829C8.40233 207.54 7.88233 208.103 7.215 208.519C6.54767 208.926 5.79367 209.13 4.953 209.13C4.11233 209.13 3.35833 208.926 2.691 208.519C2.02367 208.103 1.49933 207.54 1.118 206.829C0.745333 206.118 0.559 205.325 0.559 204.45C0.559 203.575 0.745333 202.782 1.118 202.071C1.49933 201.36 2.02367 200.801 2.691 200.394C3.35833 199.978 4.11233 199.77 4.953 199.77C5.79367 199.77 6.54767 199.978 7.215 200.394C7.88233 200.801 8.40233 201.36 8.775 202.071C9.15633 202.782 9.347 203.575 9.347 204.45ZM8.008 204.45C8.008 203.8 7.878 203.215 7.618 202.695C7.358 202.166 6.994 201.755 6.526 201.46C6.06667 201.157 5.54233 201.005 4.953 201.005C4.36367 201.005 3.835 201.152 3.367 201.447C2.90767 201.742 2.548 202.153 2.288 202.682C2.028 203.202 1.898 203.791 1.898 204.45C1.898 205.1 2.028 205.689 2.288 206.218C2.548 206.738 2.90767 207.15 3.367 207.453C3.835 207.748 4.36367 207.895 4.953 207.895C5.54233 207.895 6.06667 207.748 6.526 207.453C6.994 207.15 7.358 206.738 7.618 206.218C7.878 205.689 8.008 205.1 8.008 204.45ZM13.9559 202.032C14.6406 202.032 15.2082 202.14 15.6589 202.357C16.1182 202.574 16.3479 202.851 16.3479 203.189C16.3479 203.336 16.3002 203.471 16.2049 203.592C16.1096 203.705 15.9882 203.761 15.8409 203.761C15.7282 203.761 15.6372 203.744 15.5679 203.709C15.5072 203.674 15.4206 203.618 15.3079 203.54C15.2559 203.488 15.1736 203.427 15.0609 203.358C14.9569 203.306 14.8096 203.263 14.6189 203.228C14.4282 203.193 14.2549 203.176 14.0989 203.176C13.6482 203.176 13.2496 203.28 12.9029 203.488C12.5562 203.696 12.2876 203.986 12.0969 204.359C11.9062 204.723 11.8109 205.13 11.8109 205.581C11.8109 206.04 11.9019 206.452 12.0839 206.816C12.2746 207.18 12.5389 207.466 12.8769 207.674C13.2149 207.882 13.6006 207.986 14.0339 207.986C14.4846 207.986 14.8486 207.917 15.1259 207.778C15.1866 207.743 15.2689 207.687 15.3729 207.609C15.4596 207.54 15.5332 207.488 15.5939 207.453C15.6632 207.418 15.7456 207.401 15.8409 207.401C16.0142 207.401 16.1486 207.457 16.2439 207.57C16.3479 207.674 16.3999 207.813 16.3999 207.986C16.3999 208.168 16.2829 208.35 16.0489 208.532C15.8236 208.705 15.5159 208.848 15.1259 208.961C14.7446 209.074 14.3329 209.13 13.8909 209.13C13.2322 209.13 12.6516 208.978 12.1489 208.675C11.6462 208.363 11.2562 207.938 10.9789 207.401C10.7102 206.855 10.5759 206.248 10.5759 205.581C10.5759 204.914 10.7189 204.311 11.0049 203.774C11.2909 203.228 11.6896 202.803 12.2009 202.5C12.7122 202.188 13.2972 202.032 13.9559 202.032ZM19.5806 203.397V207.271C19.5806 207.704 19.7756 207.921 20.1656 207.921C20.2263 207.921 20.3086 207.908 20.4126 207.882C20.5166 207.847 20.599 207.83 20.6596 207.83C20.7723 207.83 20.8676 207.878 20.9456 207.973C21.0236 208.068 21.0626 208.19 21.0626 208.337C21.0626 208.519 20.9586 208.675 20.7506 208.805C20.5426 208.935 20.3086 209 20.0486 209C19.7626 209 19.4983 208.97 19.2556 208.909C19.0216 208.848 18.8093 208.697 18.6186 208.454C18.4366 208.203 18.3456 207.826 18.3456 207.323V203.397H17.5916C17.427 203.397 17.2883 203.345 17.1756 203.241C17.0716 203.128 17.0196 202.99 17.0196 202.825C17.0196 202.66 17.0716 202.526 17.1756 202.422C17.2883 202.318 17.427 202.266 17.5916 202.266H18.3456V201.174C18.3456 201.001 18.402 200.853 18.5146 200.732C18.636 200.611 18.7876 200.55 18.9696 200.55C19.143 200.55 19.286 200.611 19.3986 200.732C19.52 200.853 19.5806 201.001 19.5806 201.174V202.266H20.6596C20.8243 202.266 20.9586 202.322 21.0626 202.435C21.1753 202.539 21.2316 202.673 21.2316 202.838C21.2316 203.003 21.1753 203.137 21.0626 203.241C20.9586 203.345 20.8243 203.397 20.6596 203.397H19.5806Z" fill="#8B98B1"/>
<path d="M69.6978 199.9C69.8625 199.9 69.9968 199.956 70.1008 200.069C70.2048 200.173 70.2568 200.307 70.2568 200.472V208.363C70.2568 208.545 70.1962 208.697 70.0748 208.818C69.9622 208.939 69.8148 209 69.6328 209C69.5375 209 69.4422 208.987 69.3468 208.961C69.2602 208.926 69.1908 208.879 69.1388 208.818L64.0298 202.162V208.428C64.0298 208.593 63.9735 208.731 63.8608 208.844C63.7568 208.948 63.6225 209 63.4578 209C63.2932 209 63.1588 208.948 63.0548 208.844C62.9508 208.731 62.8988 208.593 62.8988 208.428V200.524C62.8988 200.342 62.9552 200.195 63.0678 200.082C63.1892 199.961 63.3365 199.9 63.5098 199.9C63.6138 199.9 63.7135 199.922 63.8088 199.965C63.9042 200 63.9778 200.052 64.0298 200.121L69.1258 206.79V200.472C69.1258 200.307 69.1778 200.173 69.2818 200.069C69.3945 199.956 69.5332 199.9 69.6978 199.9ZM78.7773 205.594C78.7773 206.27 78.6256 206.877 78.3223 207.414C78.019 207.951 77.603 208.372 77.0743 208.675C76.5543 208.978 75.978 209.13 75.3453 209.13C74.7126 209.13 74.132 208.978 73.6033 208.675C73.0833 208.372 72.6716 207.951 72.3683 207.414C72.065 206.877 71.9133 206.27 71.9133 205.594C71.9133 204.918 72.065 204.307 72.3683 203.761C72.6716 203.215 73.0833 202.79 73.6033 202.487C74.132 202.184 74.7126 202.032 75.3453 202.032C75.978 202.032 76.5543 202.184 77.0743 202.487C77.603 202.79 78.019 203.215 78.3223 203.761C78.6256 204.307 78.7773 204.918 78.7773 205.594ZM77.5423 205.594C77.5423 205.126 77.4426 204.71 77.2433 204.346C77.0526 203.973 76.7883 203.687 76.4503 203.488C76.121 203.28 75.7526 203.176 75.3453 203.176C74.938 203.176 74.5653 203.28 74.2273 203.488C73.898 203.687 73.6336 203.973 73.4343 204.346C73.2436 204.71 73.1483 205.126 73.1483 205.594C73.1483 206.053 73.2436 206.465 73.4343 206.829C73.6336 207.193 73.898 207.479 74.2273 207.687C74.5653 207.886 74.938 207.986 75.3453 207.986C75.7526 207.986 76.121 207.886 76.4503 207.687C76.7883 207.479 77.0526 207.193 77.2433 206.829C77.4426 206.465 77.5423 206.053 77.5423 205.594ZM85.4146 202.123C85.5793 202.123 85.718 202.179 85.8306 202.292C85.9433 202.396 85.9996 202.522 85.9996 202.669C85.9996 202.747 85.9693 202.855 85.9086 202.994L83.4386 208.61C83.3866 208.723 83.313 208.814 83.2176 208.883C83.1223 208.952 83.0183 208.991 82.9056 209C82.767 209.017 82.637 208.991 82.5156 208.922C82.403 208.853 82.3163 208.749 82.2556 208.61L79.7856 202.994C79.7423 202.864 79.7206 202.756 79.7206 202.669C79.7206 202.53 79.777 202.405 79.8896 202.292C80.0023 202.179 80.1496 202.123 80.3316 202.123C80.4616 202.123 80.5786 202.158 80.6826 202.227C80.7866 202.288 80.869 202.383 80.9296 202.513L82.8926 207.076L84.8556 202.513C84.977 202.253 85.1633 202.123 85.4146 202.123Z" fill="#8B98B1"/>
<path d="M137.217 199.9C138.032 199.9 138.729 200.104 139.31 200.511C139.891 200.918 140.328 201.469 140.623 202.162C140.918 202.847 141.065 203.609 141.065 204.45C141.065 205.299 140.918 206.071 140.623 206.764C140.328 207.449 139.891 207.995 139.31 208.402C138.729 208.801 138.032 209 137.217 209H134.019C133.846 209 133.698 208.939 133.577 208.818C133.456 208.697 133.395 208.549 133.395 208.376V200.524C133.395 200.351 133.456 200.203 133.577 200.082C133.698 199.961 133.846 199.9 134.019 199.9H137.217ZM137.087 207.804C137.971 207.804 138.634 207.492 139.076 206.868C139.518 206.235 139.739 205.429 139.739 204.45C139.739 203.479 139.514 202.678 139.063 202.045C138.621 201.412 137.962 201.096 137.087 201.096H134.682V207.804H137.087ZM148.704 205.334C148.695 205.49 148.63 205.624 148.509 205.737C148.388 205.841 148.245 205.893 148.08 205.893H143.504C143.565 206.526 143.803 207.033 144.219 207.414C144.644 207.795 145.159 207.986 145.766 207.986C146.182 207.986 146.52 207.925 146.78 207.804C147.04 207.683 147.27 207.527 147.469 207.336C147.599 207.258 147.725 207.219 147.846 207.219C147.993 207.219 148.115 207.271 148.21 207.375C148.314 207.479 148.366 207.6 148.366 207.739C148.366 207.921 148.279 208.086 148.106 208.233C147.855 208.484 147.521 208.697 147.105 208.87C146.689 209.043 146.264 209.13 145.831 209.13C145.129 209.13 144.509 208.983 143.972 208.688C143.443 208.393 143.032 207.982 142.737 207.453C142.451 206.924 142.308 206.326 142.308 205.659C142.308 204.931 142.455 204.294 142.75 203.748C143.053 203.193 143.448 202.769 143.933 202.474C144.427 202.179 144.956 202.032 145.519 202.032C146.074 202.032 146.594 202.175 147.079 202.461C147.564 202.747 147.954 203.141 148.249 203.644C148.544 204.147 148.695 204.71 148.704 205.334ZM145.519 203.176C145.034 203.176 144.613 203.315 144.258 203.592C143.903 203.861 143.669 204.281 143.556 204.853H147.391V204.749C147.348 204.29 147.14 203.913 146.767 203.618C146.403 203.323 145.987 203.176 145.519 203.176ZM153.167 202.032C153.852 202.032 154.419 202.14 154.87 202.357C155.329 202.574 155.559 202.851 155.559 203.189C155.559 203.336 155.511 203.471 155.416 203.592C155.321 203.705 155.199 203.761 155.052 203.761C154.939 203.761 154.848 203.744 154.779 203.709C154.718 203.674 154.632 203.618 154.519 203.54C154.467 203.488 154.385 203.427 154.272 203.358C154.168 203.306 154.021 203.263 153.83 203.228C153.639 203.193 153.466 203.176 153.31 203.176C152.859 203.176 152.461 203.28 152.114 203.488C151.767 203.696 151.499 203.986 151.308 204.359C151.117 204.723 151.022 205.13 151.022 205.581C151.022 206.04 151.113 206.452 151.295 206.816C151.486 207.18 151.75 207.466 152.088 207.674C152.426 207.882 152.812 207.986 153.245 207.986C153.696 207.986 154.06 207.917 154.337 207.778C154.398 207.743 154.48 207.687 154.584 207.609C154.671 207.54 154.744 207.488 154.805 207.453C154.874 207.418 154.957 207.401 155.052 207.401C155.225 207.401 155.36 207.457 155.455 207.57C155.559 207.674 155.611 207.813 155.611 207.986C155.611 208.168 155.494 208.35 155.26 208.532C155.035 208.705 154.727 208.848 154.337 208.961C153.956 209.074 153.544 209.13 153.102 209.13C152.443 209.13 151.863 208.978 151.36 208.675C150.857 208.363 150.467 207.938 150.19 207.401C149.921 206.855 149.787 206.248 149.787 205.581C149.787 204.914 149.93 204.311 150.216 203.774C150.502 203.228 150.901 202.803 151.412 202.5C151.923 202.188 152.508 202.032 153.167 202.032Z" fill="#60708F"/>
<path d="M203.854 209.13C203.343 209.13 202.871 209.009 202.437 208.766C202.013 208.523 201.675 208.19 201.423 207.765C201.345 207.644 201.306 207.527 201.306 207.414C201.306 207.249 201.371 207.111 201.501 206.998C201.631 206.877 201.766 206.816 201.904 206.816C202.095 206.816 202.29 206.924 202.489 207.141C202.827 207.644 203.282 207.895 203.854 207.895C204.331 207.895 204.734 207.735 205.063 207.414C205.393 207.093 205.557 206.699 205.557 206.231V200.524C205.557 200.351 205.622 200.203 205.752 200.082C205.882 199.961 206.034 199.9 206.207 199.9C206.398 199.9 206.55 199.961 206.662 200.082C206.784 200.195 206.844 200.342 206.844 200.524V206.231C206.844 206.76 206.714 207.245 206.454 207.687C206.194 208.129 205.835 208.48 205.375 208.74C204.925 209 204.418 209.13 203.854 209.13ZM214.431 202.097C214.613 202.097 214.76 202.158 214.873 202.279C214.994 202.392 215.055 202.543 215.055 202.734V208.376C215.055 208.549 214.994 208.697 214.873 208.818C214.76 208.939 214.613 209 214.431 209C214.249 209 214.101 208.944 213.989 208.831C213.876 208.71 213.82 208.558 213.82 208.376V208.038C213.594 208.341 213.287 208.601 212.897 208.818C212.507 209.026 212.086 209.13 211.636 209.13C211.046 209.13 210.509 208.978 210.024 208.675C209.547 208.372 209.17 207.951 208.893 207.414C208.624 206.868 208.49 206.257 208.49 205.581C208.49 204.905 208.624 204.298 208.893 203.761C209.17 203.215 209.547 202.79 210.024 202.487C210.5 202.184 211.025 202.032 211.597 202.032C212.056 202.032 212.481 202.127 212.871 202.318C213.269 202.509 213.586 202.751 213.82 203.046V202.734C213.82 202.552 213.876 202.4 213.989 202.279C214.101 202.158 214.249 202.097 214.431 202.097ZM211.779 207.986C212.186 207.986 212.546 207.882 212.858 207.674C213.178 207.466 213.425 207.18 213.599 206.816C213.781 206.452 213.872 206.04 213.872 205.581C213.872 205.13 213.781 204.723 213.599 204.359C213.425 203.995 213.178 203.709 212.858 203.501C212.546 203.284 212.186 203.176 211.779 203.176C211.371 203.176 211.007 203.28 210.687 203.488C210.375 203.696 210.128 203.982 209.946 204.346C209.772 204.71 209.686 205.122 209.686 205.581C209.686 206.04 209.772 206.452 209.946 206.816C210.128 207.18 210.375 207.466 210.687 207.674C211.007 207.882 211.371 207.986 211.779 207.986ZM220.427 202.032C221.987 202.032 222.767 202.968 222.767 204.84V208.376C222.767 208.549 222.706 208.697 222.585 208.818C222.472 208.939 222.325 209 222.143 209C221.97 209 221.822 208.939 221.701 208.818C221.588 208.697 221.532 208.549 221.532 208.376V204.853C221.532 204.342 221.415 203.934 221.181 203.631C220.947 203.328 220.566 203.176 220.037 203.176C219.69 203.176 219.374 203.254 219.088 203.41C218.811 203.557 218.59 203.761 218.425 204.021C218.269 204.272 218.191 204.55 218.191 204.853V208.376C218.191 208.549 218.13 208.697 218.009 208.818C217.896 208.939 217.749 209 217.567 209C217.385 209 217.238 208.944 217.125 208.831C217.012 208.71 216.956 208.558 216.956 208.376V202.812C216.956 202.639 217.012 202.491 217.125 202.37C217.246 202.249 217.394 202.188 217.567 202.188C217.749 202.188 217.896 202.249 218.009 202.37C218.13 202.491 218.191 202.639 218.191 202.812V203.267C218.416 202.92 218.728 202.63 219.127 202.396C219.534 202.153 219.968 202.032 220.427 202.032Z" fill="#8B98B1"/>
<path d="M270.239 201.096V203.787H273.437C273.619 203.787 273.766 203.843 273.879 203.956C274 204.069 274.061 204.216 274.061 204.398C274.061 204.554 274 204.688 273.879 204.801C273.766 204.914 273.619 204.97 273.437 204.97H270.239V208.376C270.239 208.549 270.174 208.697 270.044 208.818C269.923 208.939 269.775 209 269.602 209C269.42 209 269.268 208.939 269.147 208.818C269.026 208.697 268.965 208.549 268.965 208.376V200.524C268.965 200.351 269.026 200.203 269.147 200.082C269.268 199.961 269.416 199.9 269.589 199.9H274.022C274.204 199.9 274.351 199.956 274.464 200.069C274.585 200.182 274.646 200.329 274.646 200.511C274.646 200.667 274.585 200.806 274.464 200.927C274.343 201.04 274.195 201.096 274.022 201.096H270.239ZM282.001 205.334C281.993 205.49 281.928 205.624 281.806 205.737C281.685 205.841 281.542 205.893 281.377 205.893H276.801C276.862 206.526 277.1 207.033 277.516 207.414C277.941 207.795 278.457 207.986 279.063 207.986C279.479 207.986 279.817 207.925 280.077 207.804C280.337 207.683 280.567 207.527 280.766 207.336C280.896 207.258 281.022 207.219 281.143 207.219C281.291 207.219 281.412 207.271 281.507 207.375C281.611 207.479 281.663 207.6 281.663 207.739C281.663 207.921 281.577 208.086 281.403 208.233C281.152 208.484 280.818 208.697 280.402 208.87C279.986 209.043 279.562 209.13 279.128 209.13C278.426 209.13 277.807 208.983 277.269 208.688C276.741 208.393 276.329 207.982 276.034 207.453C275.748 206.924 275.605 206.326 275.605 205.659C275.605 204.931 275.753 204.294 276.047 203.748C276.351 203.193 276.745 202.769 277.23 202.474C277.724 202.179 278.253 202.032 278.816 202.032C279.371 202.032 279.891 202.175 280.376 202.461C280.862 202.747 281.252 203.141 281.546 203.644C281.841 204.147 281.993 204.71 282.001 205.334ZM278.816 203.176C278.331 203.176 277.911 203.315 277.555 203.592C277.2 203.861 276.966 204.281 276.853 204.853H280.688V204.749C280.645 204.29 280.437 203.913 280.064 203.618C279.7 203.323 279.284 203.176 278.816 203.176ZM286.92 202.032C287.509 202.032 288.042 202.184 288.519 202.487C288.995 202.79 289.368 203.211 289.637 203.748C289.914 204.285 290.053 204.892 290.053 205.568C290.053 206.244 289.914 206.855 289.637 207.401C289.368 207.947 288.995 208.372 288.519 208.675C288.042 208.978 287.518 209.13 286.946 209.13C286.495 209.13 286.075 209.03 285.685 208.831C285.295 208.632 284.978 208.385 284.736 208.09V208.467C284.736 208.64 284.675 208.788 284.554 208.909C284.441 209.03 284.294 209.091 284.112 209.091C283.938 209.091 283.791 209.035 283.67 208.922C283.557 208.801 283.501 208.649 283.501 208.467V200.004C283.501 199.822 283.557 199.675 283.67 199.562C283.782 199.441 283.93 199.38 284.112 199.38C284.294 199.38 284.441 199.441 284.554 199.562C284.675 199.683 284.736 199.831 284.736 200.004V203.176C284.944 202.864 285.247 202.595 285.646 202.37C286.044 202.145 286.469 202.032 286.92 202.032ZM286.777 207.986C287.175 207.986 287.535 207.882 287.856 207.674C288.176 207.457 288.423 207.167 288.597 206.803C288.779 206.43 288.87 206.019 288.87 205.568C288.87 205.117 288.779 204.71 288.597 204.346C288.423 203.982 288.176 203.696 287.856 203.488C287.535 203.28 287.175 203.176 286.777 203.176C286.369 203.176 286.005 203.28 285.685 203.488C285.364 203.696 285.113 203.982 284.931 204.346C284.757 204.701 284.671 205.109 284.671 205.568C284.671 206.027 284.757 206.439 284.931 206.803C285.113 207.167 285.364 207.457 285.685 207.674C286.005 207.882 286.369 207.986 286.777 207.986Z" fill="#8B98B1"/>
<path d="M3 139.5C6 140.5 13.2861 141.24 20.7763 133.31C30.1391 123.396 54.9229 88.6999 81.9098 108.526C92.9248 117.511 114.588 115.502 124.868 108.526C131.106 104.294 143.043 97.6847 152.406 102.468C173.848 113.423 193.712 78.7865 206.93 63.9166C221.953 47.0168 260.353 46.466 294.5 85.9461" stroke="#8438FF" stroke-width="2" stroke-linecap="round"/>
<path d="M20.7763 133.31C13.2861 141.24 6 140.5 3 139.5V164H294.5V85.9461C260.353 46.466 221.953 47.0168 206.93 63.9166C193.712 78.7865 173.848 113.423 152.406 102.468C143.043 97.6847 131.106 104.294 124.868 108.526C114.588 115.502 92.9248 117.511 81.9098 108.526C54.9229 88.6999 30.1391 123.396 20.7763 133.31Z" fill="url(#paint0_linear_36_740)" fill-opacity="0.5"/>
<circle cx="143.5" cy="101" r="4.5" fill="#8438FF" stroke="white"/>
<rect x="113.5" y="53" width="60.2963" height="28.7778" rx="7" fill="#8438FF"/>
<path d="M145.734 85.2C144.503 87.3333 143.887 88.4 142.963 88.4C142.039 88.4 141.423 87.3333 140.192 85.2L139.207 83.4944C137.975 81.3611 137.359 80.2944 137.821 79.4944C138.283 78.6944 139.515 78.6944 141.978 78.6944L143.948 78.6944C146.411 78.6944 147.643 78.6944 148.105 79.4944C148.566 80.2944 147.951 81.3611 146.719 83.4944L145.734 85.2Z" fill="#8438FF"/>
<path d="M224.84 9.45C224.84 10.3253 224.649 11.1183 224.268 11.829C223.895 12.5397 223.375 13.103 222.708 13.519C222.041 13.9263 221.287 14.13 220.446 14.13C219.605 14.13 218.851 13.9263 218.184 13.519C217.517 13.103 216.992 12.5397 216.611 11.829C216.238 11.1183 216.052 10.3253 216.052 9.45C216.052 8.57467 216.238 7.78167 216.611 7.071C216.992 6.36033 217.517 5.80133 218.184 5.394C218.851 4.978 219.605 4.77 220.446 4.77C221.287 4.77 222.041 4.978 222.708 5.394C223.375 5.80133 223.895 6.36033 224.268 7.071C224.649 7.78167 224.84 8.57467 224.84 9.45ZM223.501 9.45C223.501 8.8 223.371 8.215 223.111 7.695C222.851 7.16633 222.487 6.75467 222.019 6.46C221.56 6.15667 221.035 6.005 220.446 6.005C219.857 6.005 219.328 6.15233 218.86 6.447C218.401 6.74167 218.041 7.15333 217.781 7.682C217.521 8.202 217.391 8.79133 217.391 9.45C217.391 10.1 217.521 10.6893 217.781 11.218C218.041 11.738 218.401 12.1497 218.86 12.453C219.328 12.7477 219.857 12.895 220.446 12.895C221.035 12.895 221.56 12.7477 222.019 12.453C222.487 12.1497 222.851 11.738 223.111 11.218C223.371 10.6893 223.501 10.1 223.501 9.45ZM229.449 7.032C230.134 7.032 230.701 7.14033 231.152 7.357C231.611 7.57367 231.841 7.851 231.841 8.189C231.841 8.33633 231.793 8.47067 231.698 8.592C231.603 8.70467 231.481 8.761 231.334 8.761C231.221 8.761 231.13 8.74367 231.061 8.709C231 8.67433 230.914 8.618 230.801 8.54C230.749 8.488 230.667 8.42733 230.554 8.358C230.45 8.306 230.303 8.26267 230.112 8.228C229.921 8.19333 229.748 8.176 229.592 8.176C229.141 8.176 228.743 8.28 228.396 8.488C228.049 8.696 227.781 8.98633 227.59 9.359C227.399 9.723 227.304 10.1303 227.304 10.581C227.304 11.0403 227.395 11.452 227.577 11.816C227.768 12.18 228.032 12.466 228.37 12.674C228.708 12.882 229.094 12.986 229.527 12.986C229.978 12.986 230.342 12.9167 230.619 12.778C230.68 12.7433 230.762 12.687 230.866 12.609C230.953 12.5397 231.026 12.4877 231.087 12.453C231.156 12.4183 231.239 12.401 231.334 12.401C231.507 12.401 231.642 12.4573 231.737 12.57C231.841 12.674 231.893 12.8127 231.893 12.986C231.893 13.168 231.776 13.35 231.542 13.532C231.317 13.7053 231.009 13.8483 230.619 13.961C230.238 14.0737 229.826 14.13 229.384 14.13C228.725 14.13 228.145 13.9783 227.642 13.675C227.139 13.363 226.749 12.9383 226.472 12.401C226.203 11.855 226.069 11.2483 226.069 10.581C226.069 9.91367 226.212 9.31133 226.498 8.774C226.784 8.228 227.183 7.80333 227.694 7.5C228.205 7.188 228.79 7.032 229.449 7.032ZM235.074 8.397V12.271C235.074 12.7043 235.269 12.921 235.659 12.921C235.719 12.921 235.802 12.908 235.906 12.882C236.01 12.8473 236.092 12.83 236.153 12.83C236.265 12.83 236.361 12.8777 236.439 12.973C236.517 13.0683 236.556 13.1897 236.556 13.337C236.556 13.519 236.452 13.675 236.244 13.805C236.036 13.935 235.802 14 235.542 14C235.256 14 234.991 13.9697 234.749 13.909C234.515 13.8483 234.302 13.6967 234.112 13.454C233.93 13.2027 233.839 12.8257 233.839 12.323V8.397H233.085C232.92 8.397 232.781 8.345 232.669 8.241C232.565 8.12833 232.513 7.98967 232.513 7.825C232.513 7.66033 232.565 7.526 232.669 7.422C232.781 7.318 232.92 7.266 233.085 7.266H233.839V6.174C233.839 6.00067 233.895 5.85333 234.008 5.732C234.129 5.61067 234.281 5.55 234.463 5.55C234.636 5.55 234.779 5.61067 234.892 5.732C235.013 5.85333 235.074 6.00067 235.074 6.174V7.266H236.153C236.317 7.266 236.452 7.32233 236.556 7.435C236.668 7.539 236.725 7.67333 236.725 7.838C236.725 8.00267 236.668 8.137 236.556 8.241C236.452 8.345 236.317 8.397 236.153 8.397H235.074ZM242.292 10.88C242.118 10.88 241.971 10.8237 241.85 10.711C241.728 10.5897 241.668 10.438 241.668 10.256C241.668 10.0827 241.728 9.93967 241.85 9.827C241.971 9.71433 242.118 9.658 242.292 9.658H244.788C244.961 9.658 245.104 9.71867 245.217 9.84C245.338 9.95267 245.399 10.1 245.399 10.282C245.399 10.4553 245.338 10.5983 245.217 10.711C245.104 10.8237 244.961 10.88 244.788 10.88H242.292ZM252.183 6.096V8.787H255.381C255.563 8.787 255.711 8.84333 255.823 8.956C255.945 9.06867 256.005 9.216 256.005 9.398C256.005 9.554 255.945 9.68833 255.823 9.801C255.711 9.91367 255.563 9.97 255.381 9.97H252.183V13.376C252.183 13.5493 252.118 13.6967 251.988 13.818C251.867 13.9393 251.72 14 251.546 14C251.364 14 251.213 13.9393 251.091 13.818C250.97 13.6967 250.909 13.5493 250.909 13.376V5.524C250.909 5.35067 250.97 5.20333 251.091 5.082C251.213 4.96067 251.36 4.9 251.533 4.9H255.966C256.148 4.9 256.296 4.95633 256.408 5.069C256.53 5.18167 256.59 5.329 256.59 5.511C256.59 5.667 256.53 5.80567 256.408 5.927C256.287 6.03967 256.14 6.096 255.966 6.096H252.183ZM263.946 10.334C263.937 10.49 263.872 10.6243 263.751 10.737C263.629 10.841 263.486 10.893 263.322 10.893H258.746C258.806 11.5257 259.045 12.0327 259.461 12.414C259.885 12.7953 260.401 12.986 261.008 12.986C261.424 12.986 261.762 12.9253 262.022 12.804C262.282 12.6827 262.511 12.5267 262.711 12.336C262.841 12.258 262.966 12.219 263.088 12.219C263.235 12.219 263.356 12.271 263.452 12.375C263.556 12.479 263.608 12.6003 263.608 12.739C263.608 12.921 263.521 13.0857 263.348 13.233C263.096 13.4843 262.763 13.6967 262.347 13.87C261.931 14.0433 261.506 14.13 261.073 14.13C260.371 14.13 259.751 13.9827 259.214 13.688C258.685 13.3933 258.273 12.9817 257.979 12.453C257.693 11.9243 257.55 11.3263 257.55 10.659C257.55 9.931 257.697 9.294 257.992 8.748C258.295 8.19333 258.689 7.76867 259.175 7.474C259.669 7.17933 260.197 7.032 260.761 7.032C261.315 7.032 261.835 7.175 262.321 7.461C262.806 7.747 263.196 8.14133 263.491 8.644C263.785 9.14667 263.937 9.71 263.946 10.334ZM260.761 8.176C260.275 8.176 259.855 8.31467 259.5 8.592C259.144 8.86067 258.91 9.281 258.798 9.853H262.633V9.749C262.589 9.28967 262.381 8.91267 262.009 8.618C261.645 8.32333 261.229 8.176 260.761 8.176ZM268.864 7.032C269.453 7.032 269.986 7.18367 270.463 7.487C270.939 7.79033 271.312 8.21067 271.581 8.748C271.858 9.28533 271.997 9.892 271.997 10.568C271.997 11.244 271.858 11.855 271.581 12.401C271.312 12.947 270.939 13.3717 270.463 13.675C269.986 13.9783 269.462 14.13 268.89 14.13C268.439 14.13 268.019 14.0303 267.629 13.831C267.239 13.6317 266.922 13.3847 266.68 13.09V13.467C266.68 13.6403 266.619 13.7877 266.498 13.909C266.385 14.0303 266.238 14.091 266.056 14.091C265.882 14.091 265.735 14.0347 265.614 13.922C265.501 13.8007 265.445 13.649 265.445 13.467V5.004C265.445 4.822 265.501 4.67467 265.614 4.562C265.726 4.44067 265.874 4.38 266.056 4.38C266.238 4.38 266.385 4.44067 266.498 4.562C266.619 4.68333 266.68 4.83067 266.68 5.004V8.176C266.888 7.864 267.191 7.59533 267.59 7.37C267.988 7.14467 268.413 7.032 268.864 7.032ZM268.721 12.986C269.119 12.986 269.479 12.882 269.8 12.674C270.12 12.4573 270.367 12.167 270.541 11.803C270.723 11.4303 270.814 11.0187 270.814 10.568C270.814 10.1173 270.723 9.71 270.541 9.346C270.367 8.982 270.12 8.696 269.8 8.488C269.479 8.28 269.119 8.176 268.721 8.176C268.313 8.176 267.949 8.28 267.629 8.488C267.308 8.696 267.057 8.982 266.875 9.346C266.701 9.70133 266.615 10.1087 266.615 10.568C266.615 11.0273 266.701 11.439 266.875 11.803C267.057 12.167 267.308 12.4573 267.629 12.674C267.949 12.882 268.313 12.986 268.721 12.986Z" fill="#60708F"/>
<path d="M285.057 13.859C285.009 13.8119 284.802 13.6341 284.633 13.4685C283.563 12.4976 281.813 9.96468 281.279 8.63897C281.193 8.43764 281.012 7.92863 281 7.65667C281 7.39608 281.06 7.14766 281.182 6.91061C281.352 6.61511 281.619 6.37806 281.935 6.24816C282.154 6.16455 282.81 6.03466 282.822 6.03466C283.539 5.90476 284.705 5.83332 285.993 5.83332C287.221 5.83332 288.339 5.90476 289.067 6.01111C289.079 6.02329 289.894 6.15318 290.173 6.29525C290.683 6.55584 291 7.06485 291 7.60959L291 7.65667C290.987 8.01144 290.671 8.7575 290.659 8.7575C290.124 10.0118 288.46 12.4862 287.354 13.4807C287.354 13.4807 287.07 13.7607 286.892 13.8825C286.637 14.0725 286.322 14.1667 286.006 14.1667C285.653 14.1667 285.325 14.0603 285.057 13.859Z" fill="#60708F"/>
<defs>
<linearGradient id="paint0_linear_36_740" x1="123.5" y1="58" x2="139" y2="173.5" gradientUnits="userSpaceOnUse">
<stop stop-color="#8438FF"/>
<stop offset="1" stop-color="white" stop-opacity="0"/>
</linearGradient>
</defs>
</svg>
