<svg width="69" height="69" viewBox="0 0 69 69" fill="none" xmlns="http://www.w3.org/2000/svg">
<g filter="url(#filter0_d_36_229)">
<path d="M15.7646 20.8926C17.1761 14.8748 21.8749 10.1761 27.8926 8.76457C32.2386 7.74515 36.7614 7.74514 41.1074 8.76457C47.1252 10.1761 51.8239 14.8749 53.2354 20.8926C54.2549 25.2386 54.2549 29.7614 53.2354 34.1074C51.8239 40.1251 47.1252 44.8239 41.1074 46.2354C36.7614 47.2549 32.2386 47.2549 27.8926 46.2354C21.8749 44.8239 17.1761 40.1252 15.7646 34.1074C14.7451 29.7615 14.7451 25.2386 15.7646 20.8926Z" fill="#24BEEF"/>
</g>
<rect x="25" y="21.8387" width="19" height="14.7097" rx="5.04744" fill="white"/>
<path d="M25 24.0379C25 21.8078 26.8079 20 29.038 20H38.9165C40.0316 20 40.9355 20.9039 40.9355 22.019V23.4611C40.9355 25.2731 39.4666 26.7419 37.6546 26.7419H25V24.0379Z" fill="white"/>
<path d="M41.981 22.4516H31.129" stroke="#24BEEF" stroke-width="1.22581" stroke-linecap="round"/>
<path d="M39.3183 29.1936V27.7462" stroke="#24BEEF" stroke-width="1.24057" stroke-linecap="round"/>
<circle cx="39.3181" cy="27.7462" r="1.00427" fill="#24BEEF"/>
<defs>
<filter id="filter0_d_36_229" x="0.375" y="0.6875" width="68.25" height="68.25" filterUnits="userSpaceOnUse" color-interpolation-filters="sRGB">
<feFlood flood-opacity="0" result="BackgroundImageFix"/>
<feColorMatrix in="SourceAlpha" type="matrix" values="0 0 0 0 0 0 0 0 0 0 0 0 0 0 0 0 0 0 127 0" result="hardAlpha"/>
<feOffset dy="7.3125"/>
<feGaussianBlur stdDeviation="7.3125"/>
<feColorMatrix type="matrix" values="0 0 0 0 0 0 0 0 0 0 0 0 0 0 0 0 0 0 0.08 0"/>
<feBlend mode="normal" in2="BackgroundImageFix" result="effect1_dropShadow_36_229"/>
<feBlend mode="normal" in="SourceGraphic" in2="effect1_dropShadow_36_229" result="shape"/>
</filter>
</defs>
</svg>
