<svg width="69" height="69" viewBox="0 0 69 69" fill="none" xmlns="http://www.w3.org/2000/svg">
<g filter="url(#filter0_d_36_216)">
<path d="M15.7646 20.8926C17.1761 14.8748 21.8749 10.1761 27.8926 8.76457C32.2386 7.74515 36.7614 7.74514 41.1074 8.76457C47.1252 10.1761 51.8239 14.8749 53.2354 20.8926C54.2549 25.2386 54.2549 29.7614 53.2354 34.1074C51.8239 40.1251 47.1252 44.8239 41.1074 46.2354C36.7614 47.2549 32.2386 47.2549 27.8926 46.2354C21.8749 44.8239 17.1761 40.1252 15.7646 34.1074C14.7451 29.7615 14.7451 25.2386 15.7646 20.8926Z" fill="#4368C7"/>
</g>
<path fill-rule="evenodd" clip-rule="evenodd" d="M30.9604 28.4754L30.471 34.4361C30.4343 34.8827 30.0425 35.2151 29.5958 35.1784L27.1696 34.9792C26.7229 34.9425 26.3905 34.5507 26.4272 34.104L27.6225 19.5465C27.6586 19.1068 28.0387 18.778 28.4766 18.8026C28.5744 18.7608 28.6821 18.7377 28.7952 18.7377H35.6927C38.1576 18.7377 40.1558 20.7359 40.1558 23.2008V24.0123C40.1558 26.4772 38.1576 28.4754 35.6927 28.4754H30.9604Z" fill="white"/>
<path fill-rule="evenodd" clip-rule="evenodd" d="M34.954 31.7213L34.4646 37.682C34.4279 38.1286 34.0361 38.461 33.5894 38.4243L31.1631 38.2251C30.7165 38.1884 30.3841 37.7966 30.4208 37.3499L31.6161 22.7924C31.6528 22.3457 32.0446 22.0133 32.4913 22.05L32.5243 22.0527C32.6247 22.0083 32.7358 21.9836 32.8526 21.9836H38.1272C40.5921 21.9836 42.5903 23.9818 42.5903 26.4467V27.2582C42.5903 29.7231 40.5921 31.7213 38.1272 31.7213H34.954Z" fill="#68BFF0" fill-opacity="0.7"/>
<defs>
<filter id="filter0_d_36_216" x="0.375" y="0.6875" width="68.25" height="68.25" filterUnits="userSpaceOnUse" color-interpolation-filters="sRGB">
<feFlood flood-opacity="0" result="BackgroundImageFix"/>
<feColorMatrix in="SourceAlpha" type="matrix" values="0 0 0 0 0 0 0 0 0 0 0 0 0 0 0 0 0 0 127 0" result="hardAlpha"/>
<feOffset dy="7.3125"/>
<feGaussianBlur stdDeviation="7.3125"/>
<feColorMatrix type="matrix" values="0 0 0 0 0 0 0 0 0 0 0 0 0 0 0 0 0 0 0.08 0"/>
<feBlend mode="normal" in2="BackgroundImageFix" result="effect1_dropShadow_36_216"/>
<feBlend mode="normal" in="SourceGraphic" in2="effect1_dropShadow_36_216" result="shape"/>
</filter>
</defs>
</svg>
